<?xml version="1.0" encoding="UTF-8" standalone="no"?>
<svg
   viewBox="0 0 377.95254 377.9524"
   width="377.95255"
   height="377.95239"
   version="1.1"
   id="svg90"
   sodipodi:docname="Part Studio 1 - Sketch 3.dxf"
   xmlns:inkscape="http://www.inkscape.org/namespaces/inkscape"
   xmlns:sodipodi="http://sodipodi.sourceforge.net/DTD/sodipodi-0.dtd"
   xmlns="http://www.w3.org/2000/svg"
   xmlns:svg="http://www.w3.org/2000/svg">
  <sodipodi:namedview
     id="namedview90"
     pagecolor="#ffffff"
     bordercolor="#000000"
     borderopacity="0.25"
     inkscape:showpageshadow="2"
     inkscape:pageopacity="0.0"
     inkscape:pagecheckerboard="0"
     inkscape:deskcolor="#d1d1d1"
     inkscape:zoom="0.54129434"
     inkscape:cx="-145.94647"
     inkscape:cy="70.202101"
     inkscape:window-width="1901"
     inkscape:window-height="1061"
     inkscape:window-x="0"
     inkscape:window-y="0"
     inkscape:window-maximized="0"
     inkscape:current-layer="g82">
    <inkscape:page
       x="0"
       y="0"
       width="377.95255"
       height="377.95239"
       id="page2"
       margin="0"
       bleed="0" />
  </sodipodi:namedview>
  <desc
     id="desc1">Part Studio 1 - Sketch 3.dxf - scale = 1.000000, origin = (0.000000, 0.000000), method = manual</desc>
  <defs
     id="defs4" />
  <g
     inkscape:groupmode="layer"
     inkscape:label="MODELSKETCH_VISIBLE"
     id="g82"
     transform="translate(37.7953,-895.74801)">
    <path
       d="m -37.795276,952.44095 c -4e-6,-31.31063 25.38228,-56.69292 56.692895,-56.69294 H 283.46478 c 31.31042,2e-5 56.6927,25.38231 56.69246,56.69296 V 1217.009 c 2.3e-4,31.3095 -25.38204,56.6918 -56.69246,56.6914 H 18.897619 c -31.310608,4e-4 -56.692888,-25.3819 -56.692907,-56.6914 l -1.2e-5,-264.568"
       style="fill:#1c1f26;fill-opacity:1;stroke:none"
       id="path45"
       sodipodi:nodetypes="ccccccccc" />
    <path
       id="path47"
       style="fill:#5e81a0;fill-opacity:1;stroke:none"
       d="M 56.692981,933.54292 C 25.382357,933.54307 -3.7646815e-4,958.92576 -3.78125e-4,990.23628 V 1103.621 c 0,10.4379 8.461560525,18.8985 18.898437125,18.8985 10.436877,0 18.896485,-8.4616 18.896485,-18.8985 7e-6,-31.3106 25.382733,-56.6914 56.693359,-56.6914 31.292997,-0.025 56.648437,-25.4003 56.648437,-56.69332 0,-31.29299 -25.35544,-56.66826 -56.648437,-56.69336 z m 0,37.79492 h 37.794922 c 10.436897,-2.1e-4 18.898437,8.46155 18.898437,18.89844 0,10.43682 -8.46154,18.89852 -18.898437,18.89652 H 56.692981 v 0 c -10.436896,0 -18.898437,-8.4616 -18.898437,-18.89842 0,-10.43689 8.461547,-18.89865 18.898437,-18.89844 z" />
    <path
       d="m 23.480988,1166.1852 c -11.695156,-2.9238 -23.10102328,5.7024 -23.472036,17.7518 0.26022139,8.4512 6.1025669,15.7011 14.305342,17.7524 l 123.116726,30.7796 c 9.02781,2.2559 18.47235,2.2559 27.50006,0 l 123.11688,-30.7796 c 8.20273,-2.0513 14.04507,-9.3012 14.30529,-17.7524 -0.37101,-12.0494 -11.77688,-20.6756 -23.47214,-17.7494 l -123.11689,30.7746 c -3.00903,0.7545 -6.15721,0.7545 -9.16635,0 L 23.481,1166.19"
       style="fill:#a3be8c;fill-opacity:1;stroke:none"
       id="path61"
       sodipodi:nodetypes="ccccccccccc" />
    <path
       style="fill:#ebcb8b;fill-opacity:1;stroke:none"
       d="m 188.976,952.441 1.9e-4,37.79511 c 2.1e-4,31.31069 25.38248,56.69299 56.6931,56.69299 10.43689,0 18.89764,8.4608 18.89764,18.8977 0,10.4368 -8.46075,18.8976 -18.89779,18.8954 H 94.488195 c -10.436897,0 -18.897648,8.463 -18.897648,18.8999 0,10.4368 8.460751,18.8976 18.897648,18.8978 H 245.66914 c 31.31078,-2e-4 56.69306,-25.3825 56.69297,-56.6915 V 952.44097 c 1e-4,-10.43691 -8.46066,-18.89765 -18.89754,-18.89765 -10.43688,0 -18.89764,8.46074 -18.89761,18.89765 v 37.79514 c -3e-5,10.43699 -8.46079,18.89779 -18.89767,18.89779 -10.43688,0 -18.89764,-8.4608 -18.89746,-18.89779 v -37.79514 c -0.006,-10.43274 -8.4651,-18.887 -18.89782,-18.887 -10.43271,0 -18.89175,8.45426 -18.89763,18.88698"
       id="path68"
       sodipodi:nodetypes="cccsccsccccsccsccsc" />
  </g>
</svg>
