<?xml version="1.0" encoding="UTF-8" standalone="no"?>
<svg
   viewBox="0 0 546.92815 198.97657"
   width="546.92816"
   height="198.97656"
   version="1.1"
   id="svg84"
   sodipodi:docname="Part Studio 1 - Sketch 2 (1).dxf"
   xmlns:inkscape="http://www.inkscape.org/namespaces/inkscape"
   xmlns:sodipodi="http://sodipodi.sourceforge.net/DTD/sodipodi-0.dtd"
   xmlns="http://www.w3.org/2000/svg"
   xmlns:svg="http://www.w3.org/2000/svg">
  <sodipodi:namedview
     id="namedview84"
     pagecolor="#ffffff"
     bordercolor="#000000"
     borderopacity="0.25"
     inkscape:showpageshadow="2"
     inkscape:pageopacity="0.0"
     inkscape:pagecheckerboard="true"
     inkscape:deskcolor="#d1d1d1"
     inkscape:zoom="1.8545086"
     inkscape:cx="268.26513"
     inkscape:cy="1033.1578"
     inkscape:window-width="940"
     inkscape:window-height="1061"
     inkscape:window-x="0"
     inkscape:window-y="0"
     inkscape:window-maximized="0"
     inkscape:current-layer="g76">
    <inkscape:page
       x="0"
       y="0"
       width="546.92816"
       height="198.97656"
       id="page2"
       margin="0"
       bleed="0" />
  </sodipodi:namedview>
  <desc
     id="desc1">Part Studio 1 - Sketch 2 (1).dxf - scale = 1.000000, origin = (0.000000, 0.000000), method = manual</desc>
  <defs
     id="defs4" />
  <g
     inkscape:groupmode="layer"
     inkscape:label="MODELSKETCH_VISIBLE"
     id="g76"
     transform="translate(5.0000001,-928.54293)">
    <path
       style="baseline-shift:baseline;display:none;overflow:visible;opacity:1;vector-effect:none;enable-background:accumulate;stop-color:#000000;stop-opacity:1"
       d="m 283.465,933.043 c -10.707,0 -19.399,8.691 -19.399,19.398 0,0 0,37.795 0,37.795 0,10.164 -8.229,18.394 -18.396,18.394 -10.167,0 -18.399,-8.23 -18.399,-18.394 0,0 0,-37.795 0,-37.795 -0.006,-10.702 -8.695,-19.386 -19.398,-19.386 -10.703,0 -19.39,8.684 -19.396,19.386 0,0 0,37.795 0,37.795 0,31.584 25.612,57.194 57.193,57.194 10.167,0 18.396,8.23 18.396,18.4 0,10.16 -8.229,18.39 -18.396,18.39 0,0 -151.1817,0 -151.1817,0 -10.7071,0 -19.3985,8.69 -19.3985,19.4 0,10.71 8.6914,19.4 19.3985,19.4 0,0 151.1817,0 151.1817,0 31.579,0 57.189,-25.61 57.191,-57.19 0,0 0,-113.389 0,-113.389 0,-10.707 -8.689,-19.398 -19.396,-19.398 z"
       id="path104" />
    <path
       style="baseline-shift:baseline;display:inline;overflow:visible;opacity:1;fill:#ebcb8b;fill-opacity:1;stroke:#1c1f26;stroke-width:10;stroke-dasharray:none;stroke-opacity:1;enable-background:accumulate;stop-color:#000000;stop-opacity:1"
       d="m 283.465,934.043 c 10.166,0 18.396,8.232 18.396,18.398 0,0 0,113.389 0,113.389 -0.002,31.03 -25.152,56.19 -56.191,56.19 0,0 -151.1817,0 -151.1817,0 -10.1667,0 -18.3985,-8.24 -18.3985,-18.4 0,-10.17 8.2318,-18.4 18.3985,-18.4 0,0 151.1817,0 151.1817,0 10.707,0 19.396,-8.69 19.396,-19.4 0,-10.7 -8.689,-19.39 -19.396,-19.39 -31.04,0 -56.193,-25.16 -56.193,-56.198 0,0 0,-37.794 0,-37.794 0.006,-10.163 8.233,-18.387 18.396,-18.387 10.163,0 18.393,8.224 18.398,18.387 0,0 0,37.794 0,37.794 0,10.708 8.692,19.398 19.399,19.398 10.707,0 19.396,-8.69 19.396,-19.398 0,0 0,-37.794 0,-37.794 0,-10.167 8.232,-18.399 18.399,-18.399 z"
       id="path69" />
    <path
       style="display:inline;fill:#a3be8c;fill-opacity:1;stroke:#1c1f26;stroke-width:10;stroke-dasharray:none;stroke-opacity:1"
       d="m 423.57569,1039.1015 c -2e-5,8.418 -10.17772,12.6337 -16.12991,6.6799 l -27.20057,-27.2001 c -7.38036,-7.3752 -19.34292,-7.3736 -26.7215,0 -7.37859,7.3786 -7.3802,19.3411 -0.004,26.7227 l 68.90911,68.9096 c 11.07016,11.0686 29.01815,11.0686 40.08798,0 l 68.90961,-68.9086 c 7.37823,-7.3803 7.37748,-19.3443 -0.002,-26.7237 -7.37935,-7.3793 -19.3434,-7.3801 -26.72378,0 l -27.20006,27.2014 c -5.95236,5.9538 -16.13007,1.7381 -16.13007,-6.683 v -86.66213 c -0.006,-10.43274 -8.46494,-18.887 -18.89765,-18.887 -10.43272,0 -18.89176,8.45426 -18.89748,18.887 L 423.576,1039.1"
       id="path122"
       sodipodi:nodetypes="cccsccccsccccscc" />
    <path
       id="path98"
       style="display:inline;fill:#5e81ac;fill-opacity:1;stroke:#1c1f26;stroke-width:10;stroke-dasharray:none;stroke-opacity:1"
       d="M 56.693359,933.54297 C 25.382729,933.54297 1.6568542e-6,958.92581 0,990.23633 v 113.38477 c 0,10.4379 8.4615605,18.8984 18.898438,18.8984 10.436877,0 18.896484,-8.4615 18.896484,-18.8984 7e-6,-31.3106 25.382733,-56.6914 56.693359,-56.6914 31.292999,-0.025 56.648439,-25.4004 56.648439,-56.69337 0,-31.29299 -25.35544,-56.66827 -56.648439,-56.69336 z m 0,37.79492 h 37.794922 c 10.436899,-10e-4 18.898439,8.45959 18.898439,18.89649 0,10.43682 -8.46154,18.89652 -18.898439,18.89652 H 56.693359 v 0 c -10.436896,0 -18.898437,-8.4616 -18.898437,-18.89847 0,-10.43689 8.461548,-18.89865 18.898437,-18.89844 z" />
  </g>
</svg>
